<?xml version="1.0" encoding="UTF-8"?>
<svg xmlns="http://www.w3.org/2000/svg" id="Layer_1" data-name="Layer 1" viewBox="0 0 24 24">
  <path d="M13.458,16.614l2.082-4.978c.213-.509,.8-.75,1.308-.537,.51,.213,.75,.799,.537,1.308l-2.082,4.978c-.16,.384-.532,.614-.923,.614-.128,0-.259-.024-.385-.077-.51-.213-.75-.799-.537-1.309Zm-3.425,1.309c.126,.053,.257,.077,.385,.077,.391,0,.763-.23,.923-.614l2.082-4.978c.213-.509-.027-1.095-.537-1.308-.509-.213-1.095,.028-1.308,.537l-2.082,4.978c-.213,.51,.027,1.096,.537,1.309Zm-1.186-6.823c-.508-.213-1.095,.028-1.308,.537l-2.082,4.978c-.213,.51,.027,1.096,.537,1.309,.126,.053,.257,.077,.385,.077,.391,0,.763-.23,.923-.614l2.082-4.978c.213-.509-.027-1.095-.537-1.308Zm-4.886,3.837c.49-.255,.681-.859,.426-1.349-.256-.494-.387-1.028-.387-1.589,0-.98,.401-1.888,1.131-2.557,.645-.592,.969-1.424,.888-2.282-.012-.135-.019-.272-.019-.411,0-2.619,2.131-4.75,4.75-4.75,1.858,0,3.556,1.094,4.326,2.787,.308,.677,.901,1.181,1.63,1.383,1.939,.538,3.294,2.318,3.294,4.33,0,1.345-.596,2.608-1.636,3.466-.426,.352-.487,.981-.135,1.407,.198,.24,.484,.364,.772,.364,.224,0,.449-.075,.636-.229,1.502-1.238,2.364-3.064,2.364-5.009,0-2.908-1.958-5.481-4.759-6.257-.154-.043-.283-.149-.344-.284-1.094-2.405-3.506-3.958-6.146-3.958-3.722,0-6.75,3.028-6.75,6.75,0,.2,.01,.398,.028,.596,.022,.235-.066,.457-.249,.624-1.13,1.037-1.779,2.506-1.779,4.03,0,.885,.206,1.729,.612,2.511,.255,.49,.857,.681,1.349,.427Zm19.783,6.628c-.369-.412-1.001-.444-1.412-.076-.366,.329-.839,.511-1.332,.511-.89,0-1.793-.586-2.057-1.333-.141-.399-.519-.667-.943-.667s-.802,.268-.943,.667c-.264,.747-1.167,1.333-2.057,1.333s-1.793-.586-2.057-1.333c-.141-.399-.519-.667-.943-.667s-.802,.268-.943,.667c-.264,.747-1.167,1.333-2.057,1.333s-1.793-.586-2.057-1.333c-.141-.399-.519-.667-.943-.667s-.802,.268-.943,.667c-.264,.747-1.167,1.333-2.057,1.333-.493,0-.965-.182-1.332-.511-.41-.367-1.042-.334-1.412,.076-.369,.41-.335,1.043,.075,1.412,.734,.659,1.682,1.022,2.668,1.022,1.127,0,2.222-.472,3-1.225,.778,.753,1.873,1.225,3,1.225s2.222-.472,3-1.225c.778,.753,1.873,1.225,3,1.225s2.222-.472,3-1.225c.778,.753,1.873,1.225,3,1.225,.987,0,1.935-.363,2.668-1.022,.411-.369,.444-1.002,.075-1.412Z"/>
</svg>
