<?xml version="1.0" encoding="UTF-8"?>
<svg xmlns="http://www.w3.org/2000/svg" id="Layer_1" data-name="Layer 1" width="512" height="512" viewBox="0 0 24 24"><path d="M6.5,20c-.052,0-.105-.008-.158-.025-.262-.088-.403-.371-.316-.633l2-6c.087-.261,.369-.404,.632-.316,.262,.088,.403,.371,.316,.633l-2,6c-.07,.209-.265,.342-.474,.342Zm8.474-.342l2-6c.087-.262-.054-.545-.316-.633-.265-.088-.545,.056-.632,.316l-2,6c-.087,.262,.054,.545,.316,.633,.053,.018,.106,.025,.158,.025,.209,0,.404-.133,.474-.342Zm-5,4l2-6c.087-.262-.054-.545-.316-.633-.264-.089-.545,.056-.632,.316l-2,6c-.087,.262,.054,.545,.316,.633,.053,.018,.106,.025,.158,.025,.209,0,.404-.133,.474-.342Zm1.026-9.658c0,.552,.448,1,1,1s1-.448,1-1-.448-1-1-1-1,.448-1,1Zm-6,9c0,.552,.448,1,1,1s1-.448,1-1-.448-1-1-1-1,.448-1,1Zm8,0c0,.552,.448,1,1,1s1-.448,1-1-.448-1-1-1-1,.448-1,1Zm4.587-3.123c3.584-.632,6.279-3.615,6.408-7.093,.134-3.612-2.325-6.808-5.847-7.597-.441-.099-.806-.378-1-.767C15.533,1.198,12.049-.53,8.473,.143,5.338,.724,2.804,3.222,2.167,6.359c-.19,.933-.218,1.873-.083,2.796,.083,.567-.058,1.073-.387,1.388C.319,11.86-.271,13.775,.121,15.665c.356,1.719,1.545,3.171,3.18,3.883,.254,.112,.548-.006,.658-.258,.11-.254-.006-.548-.259-.658-1.318-.574-2.314-1.789-2.6-3.17-.321-1.55,.161-3.118,1.289-4.196,.565-.541,.815-1.362,.685-2.255-.118-.808-.093-1.633,.074-2.452C3.703,3.816,5.917,1.633,8.655,1.125c3.128-.577,6.186,.923,7.598,3.743,.329,.658,.94,1.13,1.676,1.296,3.052,.684,5.182,3.452,5.066,6.583-.112,3.01-2.459,5.595-5.583,6.146-.272,.048-.454,.307-.405,.579,.042,.242,.253,.413,.492,.413,.029,0,.058-.002,.087-.008Z"/></svg>
